<svg xmlns="http://www.w3.org/2000/svg" width="16" height="16" viewBox="0 0 8 8" fill="currentColor" aria-hidden="true">
    <path d="M3.5 0L3 1.19a1.28 1.28 0 0 0-.28.13l-1.19-.5-.72.72.5 1.19c-.05.1-.09.18-.13.28l-1.19.5v1l1.19.5c.04.1.08.18.13.28l-.5 1.19.72.72 1.19-.5c.09.04.18.09.28.13l.5 1.19h1l.5-1.19c.09-.04.19-.08.28-.13l1.19.5.72-.72-.5-1.19c.04-.09.09-.19.13-.28l1.19-.5v-1l-1.19-.5a1.28 1.28 0 0 0-.13-.28l.5-1.19-.72-.72-1.19.5a1.28 1.28 0 0 0-.28-.13L4.5 0h-1zm.5 2.5A1.5 1.5 0 1 1 2.5 4 1.5 1.5 0 0 1 4 2.5z"/>
</svg>
