<svg
    xmlns="http://www.w3.org/2000/svg"
    width="64"
    height="64"
    viewBox="0 0 64 64"
    fill="blue">
    <path d="M48 2H16C12.1 2 9 5.1 9 9v46c0 3.9 3.1 7 7 7h32c3.9 0 7-3.1 7-7V10c0-3.9-3.1-8-7-8zm-1.5 5.5L43.5 13H46c1.1 0 1.9.9 1.9 1.9v2h-4.9c-2.3 0-4.1-1.8-4.1-4.1v-3.4zm-19 49.5H15c-1.1 0-1.9-.9-1.9-1.9V11c0-1.1.9-1.9 1.9-1.9h25c1.1 0 1.9.9 1.9 1.9v36.7c0 1.1-.9 1.9-1.9 1.9h-13.5c-1.2 1.4-2.8 2.4-4.5 2.4zm11.3-13c.4 0 .7-.3.7-.7s-.3-.7-.7-.7H23c-.4 0-.7.3-.7.7s.3.7.7.7h15.8zm0-6.4c.4 0 .7-.3.7-.7s-.3-.7-.7-.7H23c-.4 0-.7.3-.7.7s.3.7.7.7h15.8zm0-6.4c.4 0 .7-.3.7-.7s-.3-.7-.7-.7H23c-.4 0-.7.3-.7.7s.3.7.7.7h15.8z"/>
</svg>