<svg xmlns="http://www.w3.org/2000/svg" width="16" height="16" viewBox="0 0 8 8" fill="currentColor" aria-hidden="true">
    <path d="M3 0a1 1 0 0 0-.72.28A1 1 0 0 0 2 1c0 .28.18.48.28.72.03.06.03.16.03.28H0v6h2.31c0-.12-.01-.22-.03-.28A1 1 0 0 1 2 7a1 1 0 0 1 .28-.72A1 1 0 0 1 3 6a1 1 0 0 1 .72.28A1 1 0 0 1 4 7c0 .28-.18.48-.28.72-.03.06-.03.16-.03.28H6v-2.31c.12 0 .22.01.28.03A1 1 0 0 0 7 6a1 1 0 0 0 .72-.28A1 1 0 0 0 8 5a1 1 0 0 0-.28-.72A1 1 0 0 0 7 4a1 1 0 0 0-.72.28c-.06.03-.16.03-.28.03V2h-2.31c0-.12.01-.22.03-.28A1 1 0 0 0 4 1a1 1 0 0 0-.28-.72A1 1 0 0 0 3 0z"/>
</svg>
