<svg
    xmlns="http://www.w3.org/2000/svg"
    viewBox="0 0 64 64"
    width="64"
    height="64"
    fill="red">
    <path d="M32 2c-3.5 0-6.5 1.5-8.6 3.8C21 7 19.5 8 17.8 9 4.6 10.2 0 17.5 0 24c0 4.5 2.5 8.3 6.1 10.4-1.5 2.2-2.6 4.9-2.6 7.6 0 6.3 5.1 11.4 11.4 11.4 1.4 0 2.9-.3 4.3-.9 1.2.6 2.5.9 3.8.9 3.7 0 7.1-1.4 9.8-3.9 2.1 2.5 5 3.9 8.1 3.9 6.3 0 11.4-5.1 11.4-11.4 0-2.7-1.1-5.4-2.6-7.6C61.5 32.3 64 28.5 64 24c0-6.5-4.6-13.8-17.2-15-1.7-1-3.2-2-4.1-3.7C38.5 3.5 35.5 2 32 2zM32 4c2.5 0 4.8.8 6.7 2-1.4 2.9-4.3 5.7-7 8.2-2.7-2.5-5.6-5.2-7-8.2C27.2 4.8 29.5 4 32 4zM8 24c0-2.1 2.7-5.6 7-6.8 0 0-1.3 2.5-1.3 5.8s1.2 8.3 1.3 11.6c-4.3-1.2-7-4.7-7-10.6zm48 0c0 5.9-2.7 9.4-7 10.6.1-3.3 1.3-8.4 1.3-11.6s-1.3-5.8-1.3-5.8c4.3 1.2 7 4.7 7 6.8zm-28.2 18c-6.3 0-11.4-5.1-11.4-11.4 0-.5.1-1.2.1-1.8.8 2.1 1.6 4 2.6 5.8 1 1.7 2.1 3.3 3.2 4.8 1.5 2 3 3.5 4.3 4.7-1.8 1.1-3.6 1.7-5.4 1.7zM48 50c-1.8 0-3.6-.6-5.4-1.7 1.3-1.1 2.8-2.7 4.3-4.7 1.1-1.5 2.2-3.1 3.2-4.8 1-1.8 1.8-3.7 2.6-5.8.1.6.1 1.2.1 1.8 0 6.3-5.1 11.4-11.4 11.4z"/>
</svg>