<svg xmlns="http://www.w3.org/2000/svg" width="16" height="16"
     viewBox="0 0 8 8" fill="currentColor" role="img" aria-label="Schedule unknown">
  <!-- schedule -->
  <path d="M2 0v1h1v.03A3.49 3.49 0 0 0 0 4.5 3.5 3.5 0 0 0 7 4.5c0-.45-.1-.87-.25-1.25l-.91.38c.11.29.16.57.16.88a2.5 2.5 0 1 1-2.5-2.5c.3 0 .59.05.88.16l.34-.94a3.48 3.48 0 0 0-.72-.16V1h1V0H2z"/>
  <path d="M7 1.16S3.35 3.97 3.16 4.16a.5.5 0 0 0 0 .69.5.5 0 0 0 .69 0C4.05 4.65 7 1.16 7 1.16z"/>
  <!-- unknown badge -->
  <circle cx="6.2" cy="6.2" r="1.6" fill="var(--win-unknown, #616161)"/>
  <!-- ?: koukku -->
  <path d="M5.6 5.8c0-.5.4-.8.9-.8s.9.3.9.7c0 .4-.3.5-.6.7-.2.1-.3.3-.3.5"
        stroke="#fff" stroke-width="0.6" stroke-linecap="round" fill="none"/>
  <!-- ?: piste -->
  <circle cx="6.2" cy="7.1" r="0.25" fill="#fff"/>
</svg>