<?xml version="1.0" encoding="utf-8"?>
<!DOCTYPE svg PUBLIC "-//W3C//DTD SVG 1.0//EN" "http://www.w3.org/TR/2001/REC-SVG-20010904/DTD/svg10.dtd">
<svg version="1.0" xmlns="http://www.w3.org/2000/svg" width="16px" height="18px" viewBox="0 0 16 18" preserveAspectRatio="xMidYMid meet">
 <g fill="#e9eeff">
  <path d="M0 9 l0 -9 8 0 8 0 0 9 0 9 -8 0 -8 0 0 -9z m9.55 4.50 c0.70 0 0.95 -0.35 0.95 -1.45 0 -0.80 0.25 -1.55 0.55 -1.65 0.80 -0.25 0.15 -2.85 -1.05 -4.30 l-0.95 -1.15 -1.15 1 c-0.60 0.60 -1.50 1.05 -2 1.05 -0.90 0 -1.10 0.55 -1.60 4.40 l-0.30 2.10 1.70 0 c1.15 0 1.80 0.30 2.05 0.90 0.40 0.80 0.40 0.80 0.60 0 0.15 -0.50 0.65 -0.90 1.20 -0.90z"/>
 </g>
 <g fill="#e3e3e6">
  <path d="M4.10 15.15 c-2 -0.20 -2.15 -0.30 -1.90 -1.35 0.15 -0.60 0.40 -2.45 0.60 -4.05 0.55 -5 2.10 -6.85 5.60 -6.65 1.15 0.10 2.10 -0.05 2.10 -0.25 0 -0.25 0.25 -0.25 0.50 -0.10 0.30 0.20 0.40 0.55 0.20 0.80 -0.15 0.30 0.15 1 0.65 1.60 0.60 0.70 1 1.95 1.10 3.35 0.05 1.25 0.35 3.10 0.65 4.15 0.30 1 0.45 1.95 0.35 2.05 -0.35 0.35 -7.60 0.70 -9.85 0.45z"/>
 </g>
 <g fill="#b27c0a">
  <path d="M7.15 16.50 c-0.65 -0.25 -1.15 -0.70 -1.15 -1 0 -0.25 -0.95 -0.50 -2.05 -0.50 -1.90 0 -2.05 -0.10 -1.70 -1.10 0.15 -0.65 0.50 -2.70 0.70 -4.60 0.30 -3.05 0.55 -3.60 2 -4.90 1.40 -1.25 1.95 -1.45 3.45 -1.20 2.95 0.45 4.15 2.10 4.60 6.35 0.25 2.05 0.60 4.10 0.75 4.60 0.30 0.70 0.05 0.85 -1.70 0.85 -1.40 0 -2.05 0.20 -2.05 0.70 0 0.55 -1.20 1.45 -1.65 1.25 -0.05 0 -0.60 -0.20 -1.20 -0.45z m5.05 -5.35 c-0.15 -1.60 -0.50 -3.60 -0.75 -4.45 -0.90 -2.85 -5.10 -3.55 -6.65 -1.05 -0.35 0.60 -0.80 2.75 -1 4.75 l-0.30 3.60 4.50 0 4.50 0 -0.30 -2.85z"/>
 </g>
 <g fill="#bbbec4">
  <path d="M6.60 16.40 c-1 -1 -0.70 -1.40 1.10 -1.40 1.90 0 2.85 0.85 1.75 1.55 -1 0.60 -2.15 0.55 -2.85 -0.15z"/>
 </g>
 <g fill="#26262c">
  <path d="M6.30 15.70 c-0.25 -0.70 -0.20 -0.75 0.45 -0.20 0.40 0.35 1.20 0.50 1.75 0.35 0.55 -0.15 1 -0.05 1 0.20 0 0.80 -2.90 0.50 -3.20 -0.35z"/>
 </g>
</svg>