<svg xmlns="http://www.w3.org/2000/svg" width="16" height="16" viewBox="0 0 8 8" fill="currentColor" aria-hidden="true">
    <path d="M5.5 0c-.51 0-.95.35-1.22.88.45.54.72 1.28.72 2.13 0 .29-.03.55-.09.81.19.11.38.19.59.19 0 0 0 0 0 0C6.33 4 7 3.1 7 2S6.33 0 5.5 0zM2.5 1C1.67 1 1 1.9 1 3s.67 2 1.5 2S4 4.1 4 3 3.33 1 2.5 1zm4.75 3.16c-.43.51-1.02.82-1.69.84.27.38.44.84.44 1.34v.66h2V6.34c0-.52-.31-.97-.75-1.19zM.75 5.16C.31 5.38 0 5.83 0 6.34v1.66h5V6.34c0-.52-.31-.97-.75-1.19C3.8 5.68 3.19 6 2.5 6s-1.3-.32-1.75-.84z"/>
</svg>
