<svg width="56" height="49" xmlns="http://www.w3.org/2000/svg" xmlns:xlink="http://www.w3.org/1999/xlink" overflow="hidden">
  <defs>
    <clipPath id="clip0">
      <rect x="235" y="51" width="56" height="49" />
    </clipPath>
  </defs>
  <g clip-path="url(#clip0)" transform="translate(-235 -51)">
    <path d="M263.506 51C264.717 51 265.813 51.4837 266.606 52.2658L267.052 52.79987 267.539 53.6283 290.185 92.1831 290.545 92.795 290.656 92.996C290.877 93.513 291 94.0815 291 94.6782 291 97.0651 289.038 99 286.617 99L240.383 99C237.963 99 236 97.0651 236 94.6782 236 94.3799 236.031 94.0886 236.089 93.8072L236.338 93.0162 236.858 92.1314 259.473 53.6294 259.961 52.7985 260.407 52.2658C261.2 51.4837 262.296 51 263.506 51ZM263.586 66.0183C260.737 66.0183 259.313 67.1245 259.313 69.337 259.313 69.6102 259.332 69.8608 259.371 70.0887L261.795 84.0161 265.38 84.0161 267.821 69.7475 267.86 69.7309 267.879 69.5877 267.879 69.3179 267.879 67.1182 266.448 66.0183 263.586 66.0183ZM263.576 86.0547C261.049 86.0547 259.786 87.3005 259.786 89.7921 259.786 92.2837 261.049 93.5295 263.576 93.5295 266.116 93.5295 267.387 92.2837 267.387 89.7921 267.387 87.3005 266.116 86.0547 263.576 86.0547Z" fill="#FFE500" fill-rule="evenodd" />
  </g>
</svg>
